<svg width="200" height="185" viewBox="0 0 200 185" fill="none" xmlns="http://www.w3.org/2000/svg">
<path d="M161.046 40.9412L172.178 14.7384L154.85 7.37315L137.515 0L126.374 26.2037C114.894 48.3803 68.1205 18.8235 38.9127 58.6099C12.5244 94.5686 0 101.993 0 101.993C0 101.993 49.9272 119.35 70.7713 99.2101C70.7713 99.2101 67.9289 134.747 91.4968 156.354C123.406 158.33 147.033 131.638 147.033 131.638C149.062 165.377 194.117 184.533 194.117 184.533C194.117 184.533 189.461 170.084 198.367 126.412C207.811 80.1563 151.993 62.2213 161.046 40.9412Z" fill="#00A54A"/>
</svg>
