<svg width="250" height="188" viewBox="0 0 250 188" fill="none" xmlns="http://www.w3.org/2000/svg">
<path d="M152.5 61.875C206.875 34.375 246.25 41.875 250 41.875C232.5 71.875 222.5 86.25 172.5 81.875C218.125 91.25 246.875 121.25 250 125C218.125 145 180 133.75 140.625 85C140 85 139.375 85 139.375 85C139.375 85 170.625 130 166.875 187.5C127.166 188.286 110.625 151.875 119.375 86.25C118.965 83.6021 95.6247 170.625 0 125C40.6247 101.25 53.7497 73.75 109.375 77.5C104.375 71.25 67.5001 77.1354 45.0001 66.875C27.4937 58.8918 20.6251 39.4497 20.6251 20.625C51.8751 33.125 103.75 25.625 118.75 62.5001C128.75 22.5 146.25 0 146.25 0H187.5C187.5 0 165.625 40 152.5 61.875Z" fill="#00A54A"/>
</svg>
