<svg width="417" height="355" viewBox="0 0 417 355" fill="none" xmlns="http://www.w3.org/2000/svg">
<path d="M104.167 0C22.7083 18.5417 0 88.125 0 166.667C0 270.833 93.125 354.167 208.333 354.167C310.208 354.167 416.667 295 416.667 145.833C416.667 83.3333 392.292 20.8333 333.333 0C329.365 9.39126 321.891 16.8651 312.5 20.8333C323.75 24.7917 342.083 49.7917 354.167 62.5C347.708 79.375 316.667 94.1667 263.75 83.3333C266.938 104.045 266.938 125.122 263.75 145.833C244.886 146.172 226.448 140.209 211.354 128.889C196.261 117.568 185.374 101.538 180.417 83.3333C130.208 114.583 61.0417 76.6667 62.5 62.5C80.8333 49.7917 104.167 24.375 125 20.8333C116.399 15.7712 109.229 8.60128 104.167 0Z" fill="#EC2424"/>
</svg>
