<svg width="421" height="420" viewBox="0 0 421 420" fill="none" xmlns="http://www.w3.org/2000/svg">
<path d="M314.721 0.00381578C312.576 0.00921737 310.418 0.0245222 308.25 0.0470288C221.271 0.952696 116.989 14.7601 44.356 43.5289C92.6408 71.0023 176.916 106.475 247.148 100.807C342.475 88.4108 364.374 43.9133 396.837 9.07849C324.327 40.9497 226.745 70.5621 147.154 51.6502L150.899 35.8839C217.513 51.7114 303.126 29.4677 371.632 1.92678C354.127 0.598891 334.959 -0.056502 314.721 0.00381578ZM419.194 9.69877C383.821 41.7176 360.659 102.467 249.022 116.91L248.834 116.934L248.642 116.95C193.469 121.458 133.381 103.553 85.3478 82.4339C4.22222 155.385 -23.3403 271.91 21.2552 360.594C14.7823 374.218 8.56149 410.752 16.4442 415.92C25.3631 421.769 67.1985 424.528 106.861 401.379C347.21 421.319 449.93 223.94 407.829 65.0039C415.928 49.2141 423.128 21.5012 419.193 9.69877H419.194Z" fill="#F0DD0E"/>
</svg>
