<svg width="445" height="450" viewBox="0 0 445 450" fill="none" xmlns="http://www.w3.org/2000/svg">
<path d="M206.379 0.0166092C205.564 0.0649753 204.76 0.227791 203.99 0.500269C188.439 5.94144 177.34 10.9183 169.016 21.5975C162.751 29.6388 158.391 39.8353 153.478 54.88C142.535 42.9898 127.62 33.1289 111.037 25.075C87.9987 13.8851 61.6237 6.25098 37.3701 3.03948C35.4297 2.78024 33.4585 3.18258 31.7749 4.18154C30.0913 5.18049 28.7935 6.71775 28.0911 8.54509C27.3887 10.3724 27.3227 12.3832 27.9037 14.2526C28.4848 16.1221 29.679 17.7412 31.2934 18.8484C52.2698 33.2943 70.494 47.1599 82.955 61.1076C92.5934 71.8981 98.6353 82.3983 100.789 93.5418C68.9734 89.9579 40.0893 96.8984 4.63124 116.032C2.84654 116.977 1.44598 118.513 0.669393 120.378C-0.107193 122.242 -0.211488 124.318 0.37437 126.251C0.960228 128.184 2.19979 129.853 3.88078 130.972C5.56177 132.091 7.57961 132.591 9.58875 132.386C42.8181 129.228 76.8019 128.703 102.996 132.991C116.093 135.136 127.186 138.527 135.128 142.906C138.193 144.596 140.758 146.359 142.867 148.257C148.057 140.393 154.507 133.13 161.67 126.763C174.332 115.507 189.521 106.8 205.228 103.457C194.272 85.813 191.552 74.2148 192.805 63.3131C194.341 49.9515 203.026 35.3644 214.631 12.6798C215.332 11.3145 215.659 9.78835 215.58 8.25594C215.5 6.72353 215.017 5.2393 214.18 3.95362C213.342 2.66794 212.18 1.62648 210.81 0.934758C209.44 0.243036 207.912 -0.0743777 206.38 0.0146757L206.379 0.0166092ZM219.831 119.419C219.321 119.416 218.803 119.434 218.288 119.448C203.851 119.862 186.835 127.687 173.217 139.793C157.654 153.626 147.121 172.505 147.312 188.159C147.689 219.283 165.389 253.714 193.109 286.946C220.827 320.177 258.209 352.056 296.007 378.57C333.803 405.08 372.096 426.274 401.232 438.482C415.8 444.586 428.179 448.421 436.358 449.606C440.187 450.161 442.933 450.039 444.278 449.788C444.341 449.016 444.426 448.011 444.339 446.673C444.14 443.662 443.551 439.414 442.555 434.34C440.562 424.193 436.971 410.588 431.943 394.862C421.886 363.408 406.068 323.377 385.814 283.681C372.697 257.97 357.679 232.398 341.227 209.377C327.498 226.128 329.587 226.775 293.132 244.897L286.24 231.052C324.381 212.093 315.474 216.303 331.765 196.621C325.734 188.819 319.528 181.396 313.173 174.463C310.002 171.002 306.798 167.653 303.561 164.457C280.233 196.748 260.522 204.479 229.623 217.779L222.731 201.79C254.616 188.063 268.761 184.066 290.654 152.636C269.431 134.586 247.069 122.684 224.302 119.718C222.846 119.528 221.354 119.424 219.828 119.415L219.831 119.419Z" fill="#C86400"/>
</svg>
