<svg width="216" height="149" viewBox="0 0 216 149" fill="none" xmlns="http://www.w3.org/2000/svg">
<path d="M203.99 0.500269C204.76 0.227791 205.564 0.0649753 206.379 0.0166092L206.38 0.0146757C207.912 -0.0743777 209.44 0.243036 210.81 0.934758C212.18 1.62648 213.342 2.66794 214.18 3.95362C215.017 5.2393 215.5 6.72353 215.58 8.25594C215.659 9.78835 215.332 11.3145 214.631 12.6798C203.026 35.3644 194.341 49.9515 192.805 63.3131C191.552 74.2148 194.272 85.813 205.228 103.457C205.228 103.457 173 115 161.67 126.763C150.339 138.527 148.057 140.393 142.867 148.257C140.758 146.359 138.193 144.596 135.128 142.906C127.186 138.527 116.093 135.136 102.996 132.991C76.8019 128.703 42.8181 129.228 9.58875 132.386C7.57961 132.591 5.56177 132.091 3.88078 130.972C2.19979 129.853 0.960228 128.184 0.37437 126.251C-0.211488 124.318 -0.107193 122.242 0.669393 120.378C1.44598 118.513 2.84654 116.977 4.63124 116.032C40.0893 96.8984 68.9734 89.9579 100.789 93.5418C98.6353 82.3983 92.5934 71.8981 82.955 61.1076C70.494 47.1599 52.2698 33.2943 31.2934 18.8484C29.679 17.7412 28.4848 16.1221 27.9037 14.2526C27.3227 12.3832 27.3887 10.3724 28.0911 8.54509C28.7935 6.71775 30.0913 5.18049 31.7749 4.18154C33.4585 3.18258 35.4297 2.78024 37.3701 3.03948C61.6237 6.25098 87.9987 13.8851 111.037 25.075C127.62 33.1289 142.535 42.9898 153.478 54.88C158.391 39.8353 162.751 29.6388 169.016 21.5975C177.34 10.9183 188.439 5.94144 203.99 0.500269Z" fill="#00A54A"/>
</svg>
